<?xml version="1.0" encoding="UTF-8" standalone="no" ?>
<!DOCTYPE svg PUBLIC "-//W3C//DTD SVG 1.1//EN" "http://www.w3.org/Graphics/SVG/1.1/DTD/svg11.dtd">
<svg xmlns="http://www.w3.org/2000/svg" xmlns:xlink="http://www.w3.org/1999/xlink" version="1.1" width="1200" height="100" viewBox="0 0 1200 100" xml:space="preserve">
<desc>Created with Fabric.js 4.6.0</desc>
<defs>
</defs>
<g transform="matrix(1 0 0 1 50.1 50.1)" id="qmPo2eqi77wdFjL6DrKpK"  >
<path style="stroke: rgb(53,169,83); stroke-width: 0; stroke-dasharray: none; stroke-linecap: butt; stroke-dashoffset: 0; stroke-linejoin: miter; stroke-miterlimit: 4; fill: rgb(196,196,196); fill-rule: nonzero; opacity: 1;" vector-effect="non-scaling-stroke"  transform=" translate(-49.34, -49.34)" d="M 49.34211 0 C 76.57894999999999 0 98.68422 22.10526 98.68422 49.34211 C 98.68422 76.57894999999999 76.57896 98.68422 49.34211 98.68422 C 22.105269999999997 98.68422 0 76.57896 0 49.34211 C 0 22.105269999999997 22.10526 0 49.34211 0 z" stroke-linecap="round" />
</g>
<g transform="matrix(1 0 0 1 320.61 50.1)" id="-VV0HEEtTHW5-JDAcDzj9"  >
<path style="stroke: rgb(53,169,83); stroke-width: 0; stroke-dasharray: none; stroke-linecap: butt; stroke-dashoffset: 0; stroke-linejoin: miter; stroke-miterlimit: 4; fill: rgb(196,196,196); fill-rule: nonzero; opacity: 1;" vector-effect="non-scaling-stroke"  transform=" translate(-49.34, -49.34)" d="M 49.34211 0 C 76.57894999999999 0 98.68422 22.10526 98.68422 49.34211 C 98.68422 76.57894999999999 76.57896 98.68422 49.34211 98.68422 C 22.105269999999997 98.68422 0 76.57896 0 49.34211 C 0 22.105269999999997 22.10526 0 49.34211 0 z" stroke-linecap="round" />
</g>
<g transform="matrix(1 0 0 1 600 49.9)" id="uLhTeWrlScofg0hp-RPNS"  >
<path style="stroke: rgb(53,169,83); stroke-width: 0; stroke-dasharray: none; stroke-linecap: butt; stroke-dashoffset: 0; stroke-linejoin: miter; stroke-miterlimit: 4; fill: rgb(196,196,196); fill-rule: nonzero; opacity: 1;" vector-effect="non-scaling-stroke"  transform=" translate(-49.34, -49.34)" d="M 49.34211 0 C 76.57894999999999 0 98.68422 22.10526 98.68422 49.34211 C 98.68422 76.57894999999999 76.57896 98.68422 49.34211 98.68422 C 22.105269999999997 98.68422 0 76.57896 0 49.34211 C 0 22.105269999999997 22.10526 0 49.34211 0 z" stroke-linecap="round" />
</g>
<g transform="matrix(1 0 0 1 876.58 49.9)" id="qJc2RkCLpkfFJmDvYoagB"  >
<path style="stroke: rgb(53,169,83); stroke-width: 0; stroke-dasharray: none; stroke-linecap: butt; stroke-dashoffset: 0; stroke-linejoin: miter; stroke-miterlimit: 4; fill: rgb(196,196,196); fill-rule: nonzero; opacity: 1;" vector-effect="non-scaling-stroke"  transform=" translate(-49.34, -49.34)" d="M 49.34211 0 C 76.57894999999999 0 98.68422 22.10526 98.68422 49.34211 C 98.68422 76.57894999999999 76.57896 98.68422 49.34211 98.68422 C 22.105269999999997 98.68422 0 76.57896 0 49.34211 C 0 22.105269999999997 22.10526 0 49.34211 0 z" stroke-linecap="round" />
</g>
<g transform="matrix(1 0 0 1 1149.9 49.9)" id="e0mU4wXF_FGvJOUuj1i61"  >
<path style="stroke: rgb(53,169,83); stroke-width: 0; stroke-dasharray: none; stroke-linecap: butt; stroke-dashoffset: 0; stroke-linejoin: miter; stroke-miterlimit: 4; fill: rgb(196,196,196); fill-rule: nonzero; opacity: 1;" vector-effect="non-scaling-stroke"  transform=" translate(-49.34, -49.34)" d="M 49.34211 0 C 76.57894999999999 0 98.68422 22.10526 98.68422 49.34211 C 98.68422 76.57894999999999 76.57896 98.68422 49.34211 98.68422 C 22.105269999999997 98.68422 0 76.57896 0 49.34211 C 0 22.105269999999997 22.10526 0 49.34211 0 z" stroke-linecap="round" />
</g>
<g transform="matrix(23.87 0 0 0.42 611.84 49.9)" id="6e9oeXl82KB1Y_XsYF_kS"  >
<path style="stroke: rgb(175,215,28); stroke-width: 0; stroke-dasharray: none; stroke-linecap: butt; stroke-dashoffset: 0; stroke-linejoin: miter; stroke-miterlimit: 4; fill: rgb(196,196,196); fill-rule: nonzero; opacity: 1;" vector-effect="non-scaling-stroke"  transform=" translate(0, 0)" d="M -23.53239 -23.53239 L 23.53239 -23.53239 L 23.53239 23.53239 L -23.53239 23.53239 z" stroke-linecap="round" />
</g>
<g transform="matrix(1 0 0 1 320.61 49.9)" style="" id="SNOzQOaUkOeKyQ641ioLQ"  >
		<text xml:space="preserve" font-family="Open Sans" font-size="30" font-style="normal" font-weight="700" letter-spacing="0.06" line-height="1" style="stroke: none; stroke-width: 1; stroke-dasharray: none; stroke-linecap: butt; stroke-dashoffset: 0; stroke-linejoin: miter; stroke-miterlimit: 4; fill: rgb(0,0,0); fill-rule: nonzero; opacity: 1; white-space: pre;" ><tspan x="-8.96" y="11.09" >2</tspan></text>
</g>
<g transform="matrix(1 0 0 1 600 50.1)" style="" id="Ht_llEip7ItyPiq2b8Uoy"  >
		<text xml:space="preserve" font-family="Open Sans" font-size="30" font-style="normal" font-weight="700" letter-spacing="0.06" line-height="1" style="stroke: none; stroke-width: 1; stroke-dasharray: none; stroke-linecap: butt; stroke-dashoffset: 0; stroke-linejoin: miter; stroke-miterlimit: 4; fill: rgb(0,0,0); fill-rule: nonzero; opacity: 1; white-space: pre;" ><tspan x="-8.96" y="11.09" >3</tspan></text>
</g>
<g transform="matrix(1 0 0 1 876.58 50.1)" style="" id="Y-ozJg_5DPGXiSozwcccu"  >
		<text xml:space="preserve" font-family="Open Sans" font-size="30" font-style="normal" font-weight="700" letter-spacing="0.06" line-height="1" style="stroke: none; stroke-width: 1; stroke-dasharray: none; stroke-linecap: butt; stroke-dashoffset: 0; stroke-linejoin: miter; stroke-miterlimit: 4; fill: rgb(0,0,0); fill-rule: nonzero; opacity: 1; white-space: pre;" ><tspan x="-8.96" y="11.09" >4</tspan></text>
</g>
<g transform="matrix(1 0 0 1 1149.9 50.1)" style="" id="OoNZgww_ax7U31e4qS1WE"  >
		<text xml:space="preserve" font-family="Open Sans" font-size="30" font-style="normal" font-weight="700" letter-spacing="0.06" line-height="1" style="stroke: none; stroke-width: 1; stroke-dasharray: none; stroke-linecap: butt; stroke-dashoffset: 0; stroke-linejoin: miter; stroke-miterlimit: 4; fill: rgb(0,0,0); fill-rule: nonzero; opacity: 1; white-space: pre;" ><tspan x="-8.96" y="11.09" >5</tspan></text>
</g>
<g transform="matrix(1 0 0 1 50.1 50.1)" style="" id="WO-Dp1IfhisfxF_IWpkgT"  >
		<text xml:space="preserve" font-family="Open Sans" font-size="30" font-style="normal" font-weight="700" letter-spacing="0.06" line-height="1" style="stroke: none; stroke-width: 1; stroke-dasharray: none; stroke-linecap: butt; stroke-dashoffset: 0; stroke-linejoin: miter; stroke-miterlimit: 4; fill: rgb(0,0,0); fill-rule: nonzero; opacity: 1; white-space: pre;" ><tspan x="-8.96" y="11.09" >1</tspan></text>
</g>
</svg>