<?xml version="1.0" encoding="UTF-8" standalone="no" ?>
<!DOCTYPE svg PUBLIC "-//W3C//DTD SVG 1.1//EN" "http://www.w3.org/Graphics/SVG/1.1/DTD/svg11.dtd">
<svg xmlns="http://www.w3.org/2000/svg" xmlns:xlink="http://www.w3.org/1999/xlink" version="1.1" width="900" height="102" viewBox="0 0 900 102" xml:space="preserve">
<desc>Created with Fabric.js 4.6.0</desc>
<defs>
</defs>
<g transform="matrix(1 0 0 1 450.26 50.76)" id="LAyUOqxzzNQX6ujtmtdu-"  >
<path style="stroke: rgb(21,226,52); stroke-width: 0; stroke-dasharray: none; stroke-linecap: butt; stroke-dashoffset: 0; stroke-linejoin: miter; stroke-miterlimit: 4; fill: rgb(196,196,196); fill-rule: nonzero; opacity: 1;" vector-effect="non-scaling-stroke"  transform=" translate(-449.5, -10.76)" d="M 0 0 L 899 0 L 899 21.52628 L 0 21.52628 z" stroke-linecap="round" />
</g>
<g transform="matrix(1 0 0 1 49.76 50.76)" id="lZiHj8hRFWvwaygJ3pXT2"  >
<path style="stroke: rgb(50,206,73); stroke-width: 0; stroke-dasharray: none; stroke-linecap: butt; stroke-dashoffset: 0; stroke-linejoin: miter; stroke-miterlimit: 4; fill: rgb(196,196,196); fill-rule: nonzero; opacity: 1;" vector-effect="non-scaling-stroke"  transform=" translate(-50, -50)" d="M 50 0 C 77.6 0 100 22.4 100 50 C 100 77.6 77.6 100 50 100 C 22.4 100 0 77.6 0 50 C 0 22.4 22.4 0 50 0 z" stroke-linecap="round" />
</g>
<g transform="matrix(1 0 0 1 313.26 50.76)" id="Ia3KuxPNNdjt51WsMXevz"  >
<path style="stroke: rgb(50,206,73); stroke-width: 0; stroke-dasharray: none; stroke-linecap: butt; stroke-dashoffset: 0; stroke-linejoin: miter; stroke-miterlimit: 4; fill: rgb(196,196,196); fill-rule: nonzero; opacity: 1;" vector-effect="non-scaling-stroke"  transform=" translate(-50, -50)" d="M 50 0 C 77.6 0 100 22.4 100 50 C 100 77.6 77.6 100 50 100 C 22.4 100 0 77.6 0 50 C 0 22.4 22.4 0 50 0 z" stroke-linecap="round" />
</g>
<g transform="matrix(1 0 0 1 581.32 50.76)" id="5cQC3_NrKOZjb9fYLcXzW"  >
<path style="stroke: rgb(50,206,73); stroke-width: 0; stroke-dasharray: none; stroke-linecap: butt; stroke-dashoffset: 0; stroke-linejoin: miter; stroke-miterlimit: 4; fill: rgb(196,196,196); fill-rule: nonzero; opacity: 1;" vector-effect="non-scaling-stroke"  transform=" translate(-50, -50)" d="M 50 0 C 77.6 0 100 22.4 100 50 C 100 77.6 77.6 100 50 100 C 22.4 100 0 77.6 0 50 C 0 22.4 22.4 0 50 0 z" stroke-linecap="round" />
</g>
<g transform="matrix(1 0 0 1 850.76 50.76)" id="dTWfcU0giWHos8Hbi2eBo"  >
<path style="stroke: rgb(50,206,73); stroke-width: 0; stroke-dasharray: none; stroke-linecap: butt; stroke-dashoffset: 0; stroke-linejoin: miter; stroke-miterlimit: 4; fill: rgb(196,196,196); fill-rule: nonzero; opacity: 1;" vector-effect="non-scaling-stroke"  transform=" translate(-50, -50)" d="M 50 0 C 77.6 0 100 22.4 100 50 C 100 77.6 77.6 100 50 100 C 22.4 100 0 77.6 0 50 C 0 22.4 22.4 0 50 0 z" stroke-linecap="round" />
</g>
<g transform="matrix(1 0 0 1 74.5 48.24)" style="" id="cuu10RzAd6YitVW5qv4V3"  >
		<text xml:space="preserve" font-family="Open Sans" font-size="34" font-style="normal" font-weight="700" letter-spacing="0.068" line-height="1" style="stroke: none; stroke-width: 1; stroke-dasharray: none; stroke-linecap: butt; stroke-dashoffset: 0; stroke-linejoin: miter; stroke-miterlimit: 4; fill: rgb(0,0,0); fill-rule: nonzero; opacity: 1; white-space: pre;" ><tspan x="-35.79" y="14.11" >1</tspan></text>
</g>
<g transform="matrix(1 0 0 1 374.29 60.24)" style="" id="8hl03FiVwWptZrXajwo4w"  >
		<text xml:space="preserve" font-family="Open Sans" font-size="34" font-style="normal" font-weight="700" letter-spacing="0.068" line-height="1" style="stroke: none; stroke-width: 1; stroke-dasharray: none; stroke-linecap: butt; stroke-dashoffset: 0; stroke-linejoin: miter; stroke-miterlimit: 4; fill: rgb(0,0,0); fill-rule: nonzero; opacity: 1; white-space: pre;" ><tspan x="-70.53" y="1.49" >2</tspan></text>
</g>
<g transform="matrix(1 0 0 1 639.13 65.52)" style="" id="Qi7uGrcje1iOba1WKKw-m"  >
		<text xml:space="preserve" font-family="Open Sans" font-size="34" font-style="normal" font-weight="700" letter-spacing="0.068" line-height="1" style="stroke: none; stroke-width: 1; stroke-dasharray: none; stroke-linecap: butt; stroke-dashoffset: 0; stroke-linejoin: miter; stroke-miterlimit: 4; fill: rgb(0,0,0); fill-rule: nonzero; opacity: 1; white-space: pre;" ><tspan x="-66.84" y="-3.77" >3</tspan></text>
</g>
<g transform="matrix(1 0 0 1 921.71 69.7)" style="" id="iCJcaIrdZLsBggFpx_5ko"  >
		<text xml:space="preserve" font-family="Open Sans" font-size="34" font-style="normal" font-weight="700" letter-spacing="0.068" line-height="1" style="stroke: none; stroke-width: 1; stroke-dasharray: none; stroke-linecap: butt; stroke-dashoffset: 0; stroke-linejoin: miter; stroke-miterlimit: 4; fill: rgb(0,0,0); fill-rule: nonzero; opacity: 1; white-space: pre;" ><tspan x="-82.11" y="-7.97" >4</tspan></text>
</g>
</svg>